<?xml version="1.0" encoding="UTF-8"?>
<svg id="Layer_1" data-name="Layer 1" xmlns="http://www.w3.org/2000/svg" viewBox="0 0 288 288">
  <defs>
    <style>
      .cls-1 {
        fill: #86aa4d;
      }
    </style>
  </defs>
  <path class="cls-1" d="m155.13,143.47c-13.52,9.73-29.13,13.89-45.16,16.58-14.06,2.36-27.79,5.66-40.24,12.75-5.69,3.24-10.88,7.38-16.24,11.19-1.89,1.34-3.62,2.92-5.73,4.64-5.07-7.54-7.42-15.65-9.12-23.93-5.48-26.71.89-50.29,19.68-70.14,12.69-13.4,29.33-19.12,46.91-22.46,22.01-4.19,44.19-3.01,66.37-1.59,20.26,1.3,40.52,2.51,60.8,3.35,6.04.25,12.14-.9,18.86-1.46-.85.97-1.26,1.79-1.92,2.14-28.92,15.04-45.82,40.18-58.54,69.01-6.47,14.67-12.73,29.61-23.84,41.6-20.18,21.77-45.29,32.97-74.91,33.63-9.12.2-17.65-2.6-25.27-7.95-3.31-2.33-3.99-4.32-1.66-8.05,12.01-19.24,29.67-30.35,50.99-36.48,11.38-3.28,22.58-7.09,32.15-14.36,2.88-2.18,5.31-4.95,7.95-7.45-.36-.34-.72-.68-1.08-1.02Zm39.51-55.32c0-.36.01-.72.02-1.08-.37-.24-.72-.55-1.13-.69-.74-.26-1.5-.49-2.27-.59-24.48-3.2-48.96-6.5-73.75-3.92-18.34,1.91-35.82,6.04-50.36,18.43-10.25,8.74-17.31,19.42-20.48,32.55-.46,1.93-.34,3.99-.49,5.99,1.48-.7,2.07-1.45,2.4-2.29,11.08-28.46,33.74-40.66,62.35-44.82,22.34-3.25,44.79-3.74,67.3-3.58,5.46.04,10.93,0,16.39,0Z"/>
</svg>